<svg width="126" height="95" viewBox="0 0 126 95" fill="none" xmlns="http://www.w3.org/2000/svg">
<g clip-path="url(#clip0_4_29)">
<rect y="-6" width="124" height="98" fill="#333333"/>
<path d="M103.605 65.5234V68.5703H108.404L108.527 68.4531H108.773L108.896 68.3359H109.02L109.389 67.9844V67.8672L109.512 67.75V67.6328L109.635 67.5156V66.6953L109.512 66.5781V66.4609L109.389 66.3438V66.2266L109.02 65.875H108.896L108.773 65.7578H108.527L108.404 65.6406H107.912L107.789 65.5234H103.605Z" fill="#ECE8E5"/>
<path d="M56.2324 60.8359V61.0703L56.1094 61.1875V61.4219L55.9863 61.5391V61.7734L55.8633 61.8906V62.125L55.7402 62.2422V62.4766L55.6172 62.5938V62.7109L55.4941 62.8281V63.0625L55.3711 63.1797V63.4141L55.248 63.5312V63.7656L55.125 63.8828V64.1172L55.002 64.2344V64.4688L54.8789 64.5859V64.7031L54.7559 64.8203V65.0547L54.6328 65.1719V65.4062L54.5098 65.5234V65.7578L54.3867 65.875V65.9922H58.2012V65.875L58.0781 65.7578V65.6406L57.9551 65.5234V65.2891L57.832 65.1719V64.9375L57.709 64.8203V64.5859L57.5859 64.4688V64.2344L57.4629 64.1172V64L57.3398 63.8828V63.6484L57.2168 63.5312V63.2969L57.0938 63.1797V62.9453L56.9707 62.8281V62.5938L56.8477 62.4766V62.2422L56.7246 62.125V62.0078L56.6016 61.8906V61.6562L56.4785 61.5391V61.3047L56.3555 61.1875V60.9531L56.2324 60.8359Z" fill="#ECE8E5"/>
<path d="M103.605 60.1328V63.0625H107.789L107.912 62.9453H108.158L108.281 62.8281H108.404L108.527 62.7109H108.65L109.02 62.3594V62.2422L109.143 62.125V61.0703L109.02 60.9531V60.8359L108.896 60.7188V60.6016L108.773 60.4844H108.65L108.527 60.3672H108.404L108.281 60.25H108.035L107.912 60.1328H103.605Z" fill="#ECE8E5"/>
<path d="M89.7012 60.1328L89.5781 60.25H89.209L89.0859 60.3672H88.8398L88.7168 60.4844H88.5938L88.4707 60.6016H88.3477L88.1016 60.8359H87.9785L87.1172 61.6562V61.7734L86.8711 62.0078V62.125L86.748 62.2422V62.3594L86.625 62.4766V62.5938L86.502 62.7109V62.8281L86.3789 62.9453V63.2969L86.2559 63.4141V65.4062L86.3789 65.5234V65.7578L86.502 65.875V66.1094L86.625 66.2266V66.3438L86.748 66.4609V66.5781L86.8711 66.6953V66.8125L87.1172 67.0469V67.1641L87.7324 67.75H87.8555L88.1016 67.9844H88.2246L88.4707 68.2188H88.5938L88.7168 68.3359H88.9629L89.0859 68.4531H89.332L89.4551 68.5703H89.9473L90.0703 68.6875H91.0547L91.1777 68.5703H91.6699L91.793 68.4531H92.0391L92.1621 68.3359H92.4082L92.5312 68.2188H92.6543L92.7773 68.1016H92.9004L93.1465 67.8672H93.2695L94.1309 67.0469V66.9297L94.377 66.6953V66.5781L94.5 66.4609V66.3438L94.623 66.2266V66.1094L94.7461 65.9922V65.7578L94.8691 65.6406V65.2891L94.9922 65.1719V63.5312L94.8691 63.4141V63.0625L94.7461 62.9453V62.7109L94.623 62.5938V62.4766L94.5 62.3594V62.2422L94.2539 62.0078V61.8906L93.8848 61.5391V61.4219L93.5156 61.0703H93.3926L93.0234 60.7188H92.9004L92.7773 60.6016H92.6543L92.5312 60.4844H92.4082L92.2852 60.3672H92.0391L91.916 60.25H91.6699L91.5469 60.1328H89.7012Z" fill="#ECE8E5"/>
<path d="M25.1016 60.1328L24.9785 60.25H24.6094L24.4863 60.3672H24.3633L24.2402 60.4844H24.1172L23.9941 60.6016H23.8711L23.748 60.7188H23.625L23.3789 60.9531H23.2559L22.5176 61.6562V61.7734L22.2715 62.0078V62.125L22.1484 62.2422V62.3594L22.0254 62.4766V62.5938L21.9023 62.7109V62.9453L21.7793 63.0625V63.4141L21.6562 63.5312V65.2891L21.7793 65.4062V65.7578L21.9023 65.875V66.1094L22.0254 66.2266V66.3438L22.1484 66.4609V66.5781L22.3945 66.8125V66.9297L23.502 67.9844H23.625L23.748 68.1016H23.8711L23.9941 68.2188H24.1172L24.2402 68.3359H24.3633L24.4863 68.4531H24.7324L24.8555 68.5703H25.4707L25.5938 68.6875H26.4551L26.5781 68.5703H27.1934L27.3164 68.4531H27.5625L27.6855 68.3359H27.8086L27.9316 68.2188H28.0547L28.1777 68.1016H28.3008L28.5469 67.8672H28.6699L29.5312 67.0469V66.9297L29.7773 66.6953V66.5781L29.9004 66.4609V66.3438L30.0234 66.2266V66.1094L30.1465 65.9922V65.7578L30.2695 65.6406V65.2891L30.3926 65.1719V63.6484L30.2695 63.5312V63.0625L30.1465 62.9453V62.8281L30.0234 62.7109V62.4766L29.7773 62.2422V62.125L29.6543 62.0078V61.8906L28.5469 60.8359H28.4238L28.1777 60.6016H28.0547L27.9316 60.4844H27.8086L27.6855 60.3672H27.4395L27.3164 60.25H26.9473L26.8242 60.1328H25.1016Z" fill="#ECE8E5"/>
<path d="M43.4355 38.9219L43.3125 39.0391H42.8203L42.6973 39.1562H42.3281L42.2051 39.2734H41.959L41.8359 39.3906H41.7129L41.5898 39.5078H41.4668L41.3438 39.625H41.0977L40.8516 39.8594H40.7285L40.6055 39.9766H40.4824L40.1133 40.3281H39.9902L38.7598 41.5V41.6172L38.5137 41.8516V41.9688L38.2676 42.2031V42.3203L38.1445 42.4375V42.5547L38.0215 42.6719V42.7891L37.8984 42.9062V43.0234L37.7754 43.1406V43.375L37.6523 43.4922V43.7266L37.5293 43.8438V44.0781L37.4062 44.1953V44.6641L37.2832 44.7812V47.125L37.4062 47.2422V47.7109L37.5293 47.8281V48.1797L37.6523 48.2969V48.4141L37.7754 48.5312V48.7656L37.8984 48.8828V49L38.0215 49.1172V49.2344L38.2676 49.4688V49.5859L38.5137 49.8203V49.9375L38.8828 50.2891V50.4062L39.375 50.875V50.7578L39.6211 50.5234V50.4062L39.8672 50.1719V50.0547L40.2363 49.7031V49.5859L40.6055 49.2344V49.1172L41.3438 48.4141V48.2969L43.8047 45.9531H43.9277L44.543 45.3672H44.666L45.0352 45.0156H45.1582L45.5273 44.6641H45.6504L45.7734 44.5469H45.8965L46.1426 44.3125H46.2656L46.5117 44.0781H46.6348L46.7578 43.9609H46.8809L47.0039 43.8438H47.127L47.25 43.7266H47.373L47.4961 43.6094H47.6191L47.7422 43.4922H47.8652L47.9883 43.375H48.2344L48.3574 43.2578H48.4805L48.6035 43.1406H48.8496L48.9727 43.0234H49.0957L49.2188 42.9062H49.4648L49.5879 42.7891H49.957L50.0801 42.6719H50.3262L50.4492 42.5547H50.9414L51.0645 42.4375H51.1875L50.8184 42.0859V41.9688L50.5723 41.7344V41.6172L49.3418 40.4453H49.2188L48.8496 40.0938H48.7266L48.6035 39.9766H48.4805L48.2344 39.7422H48.1113L47.9883 39.625H47.8652L47.7422 39.5078H47.4961L47.373 39.3906H47.25L47.127 39.2734H46.8809L46.7578 39.1562H46.3887L46.2656 39.0391H45.7734L45.6504 38.9219H43.4355Z" fill="#ECE8E5"/>
<path d="M53.4023 24.0391L53.2793 24.1562H52.1719L52.0488 24.2734H51.1875L51.0645 24.3906H50.4492L50.3262 24.5078H49.834L49.7109 24.625H49.2188L49.0957 24.7422H48.7266L48.6035 24.8594H48.2344L48.1113 24.9766H47.7422L47.6191 25.0938H47.373L47.25 25.2109H47.0039L46.8809 25.3281H46.6348L46.5117 25.4453H46.2656L46.1426 25.5625H45.8965L45.7734 25.6797H45.5273L45.4043 25.7969H45.1582L45.0352 25.9141H44.9121L44.7891 26.0312H44.543L44.4199 26.1484H44.2969L44.1738 26.2656H44.0508L43.9277 26.3828H43.6816L43.5586 26.5H43.4355L43.3125 26.6172H43.1895L43.0664 26.7344H42.9434L42.8203 26.8516H42.6973L42.5742 26.9688H42.4512L42.3281 27.0859H42.2051L42.082 27.2031H41.959L41.7129 27.4375H41.5898L41.4668 27.5547H41.3438L41.0977 27.7891H40.9746L40.8516 27.9062H40.7285L40.4824 28.1406H40.3594L40.1133 28.375H39.9902L39.7441 28.6094H39.6211L39.252 28.9609H39.1289L38.8828 29.1953H38.7598L38.5137 29.4297H38.3906L38.1445 29.6641H38.0215L37.6523 30.0156H37.5293L37.4062 30.1328H37.2832L37.0371 30.3672H36.9141L36.668 30.6016H36.5449L36.2988 30.8359H36.1758L35.9297 31.0703H35.8066L35.6836 31.1875H35.5605L35.3145 31.4219H35.1914L34.9453 31.6562H34.8223L34.6992 31.7734H34.5762L34.4531 31.8906H34.3301L34.084 32.125H33.9609L33.8379 32.2422H33.7148L33.5918 32.3594H33.4688L33.3457 32.4766H33.2227L33.0996 32.5938H32.9766L32.7305 32.8281H32.6074L32.4844 32.9453H32.2383L32.1152 33.0625H31.9922L31.8691 33.1797H31.7461L31.623 33.2969H31.5L31.377 33.4141H31.2539L31.1309 33.5312H30.8848L30.7617 33.6484H30.6387L30.5156 33.7656H30.2695L30.1465 33.8828H29.9004L29.7773 34H29.5312L29.4082 34.1172H29.1621L29.0391 34.2344H28.5469L28.4238 34.3516H28.0547V34.9375L27.9316 35.0547V38.4531L28.0547 38.5703V39.2734L28.1777 39.3906V39.8594L28.3008 39.9766V40.3281L28.4238 40.4453V40.5625L28.6699 40.7969V40.9141L28.916 41.1484H29.0391L29.2852 41.3828H29.4082L29.5312 41.5H29.6543L29.7773 41.6172H29.9004L30.0234 41.7344H30.1465L30.2695 41.8516H30.5156L30.6387 41.9688H31.1309L31.2539 42.0859H31.8691L31.9922 42.2031H34.9453V41.9688L35.0684 41.8516V41.7344L35.1914 41.6172V41.5L35.3145 41.3828V41.1484L35.5605 40.9141V40.7969L35.6836 40.6797V40.5625L35.9297 40.3281V40.2109L36.1758 39.9766V39.8594L36.5449 39.5078V39.3906L38.0215 37.9844H38.1445L38.5137 37.6328H38.6367L38.8828 37.3984H39.0059L39.252 37.1641H39.375L39.498 37.0469H39.6211L39.7441 36.9297H39.8672L39.9902 36.8125H40.1133L40.2363 36.6953H40.3594L40.4824 36.5781H40.6055L40.7285 36.4609H40.9746L41.0977 36.3438H41.3438L41.4668 36.2266H41.7129L41.8359 36.1094H42.2051L42.3281 35.9922H42.9434L43.0664 35.875H45.8965L46.0195 35.9922H46.6348L46.7578 36.1094H47.25L47.373 36.2266H47.6191L47.7422 36.3438H47.9883L48.1113 36.4609H48.3574L48.4805 36.5781H48.6035L48.7266 36.6953H48.9727L49.0957 36.8125H49.2188L49.3418 36.9297H49.4648L49.7109 37.1641H49.834L49.957 37.2812H50.0801L50.3262 37.5156H50.4492L50.6953 37.75H50.8184L51.3105 38.2188H51.4336L52.7871 39.5078V39.625L53.1562 39.9766V40.0938L53.5254 40.4453V40.5625L53.6484 40.6797V40.7969L53.8945 41.0312V41.1484L54.0176 41.2656V41.3828L54.1406 41.5V41.6172L54.2637 41.7344V41.9688L54.3867 42.0859V42.2031H57.4629L57.5859 42.3203H84.9023L85.0254 42.2031L85.1484 42.3203H85.5176L85.6406 42.2031H97.084L96.9609 42.0859V41.5L96.8379 41.3828V40.9141L96.7148 40.7969V40.4453L96.5918 40.3281V40.0938L96.4688 39.9766V39.7422L96.3457 39.625V39.3906L96.2227 39.2734V39.1562L95.9766 38.9219V38.8047L95.7305 38.5703V38.4531L94.623 37.3984H94.5L94.2539 37.1641H94.1309L93.8848 36.9297H93.7617L93.5156 36.6953H93.3926L93.1465 36.4609H93.0234L92.9004 36.3438H92.7773L92.6543 36.2266H92.5312L92.4082 36.1094H92.2852L92.1621 35.9922H92.0391L91.916 35.875H91.6699L91.5469 35.7578H91.4238L91.3008 35.6406H91.0547L90.9316 35.5234H90.8086L90.6855 35.4062H90.4395L90.3164 35.2891H90.0703L89.9473 35.1719H89.7012L89.5781 35.0547H89.209L89.0859 34.9375H88.8398L88.7168 34.8203H88.3477L88.2246 34.7031H87.8555L87.7324 34.5859H87.2402L87.1172 34.4688H86.625L86.502 34.3516H86.0098L85.8867 34.2344H85.1484L85.0254 34.1172H84.4102L84.2871 34H83.5488L83.4258 33.8828H82.6875L82.5645 33.7656H81.8262L81.7031 33.6484H81.2109L81.0879 33.5312H80.5957L80.4727 33.4141H80.1035L79.9805 33.2969H79.7344L79.6113 33.1797H79.3652L79.2422 33.0625H78.9961L78.873 32.9453H78.75L78.627 32.8281H78.3809L78.2578 32.7109H78.1348L78.0117 32.5938H77.8887L77.7656 32.4766H77.6426L77.5195 32.3594H77.3965L77.2734 32.2422H77.1504L77.0273 32.125H76.9043L76.7812 32.0078H76.6582L76.4121 31.7734H76.2891L76.166 31.6562H76.043L75.7969 31.4219H75.6738L75.5508 31.3047H75.4277L75.1816 31.0703H75.0586L74.9355 30.9531H74.8125L74.4434 30.6016H74.3203L74.0742 30.3672H73.9512L73.582 30.0156H73.459L73.0898 29.6641H72.9668L72.7207 29.4297H72.5977L72.2285 29.0781H72.1055L71.8594 28.8438H71.7363L71.3672 28.4922H71.2441L70.998 28.2578H70.875L70.6289 28.0234H70.5059L70.2598 27.7891H70.1367L70.0137 27.6719H69.8906L69.6445 27.4375H69.5215L69.3984 27.3203H69.2754L69.1523 27.2031H69.0293L68.9062 27.0859H68.7832L68.5371 26.8516H68.4141L68.291 26.7344H68.168L68.0449 26.6172H67.9219L67.7988 26.5H67.6758L67.5527 26.3828H67.3066L67.1836 26.2656H67.0605L66.9375 26.1484H66.6914L66.5684 26.0312H66.4453L66.3223 25.9141H66.0762L65.9531 25.7969H65.8301L65.707 25.6797H65.4609L65.3379 25.5625H65.0918L64.9688 25.4453H64.7227L64.5996 25.3281H64.3535L64.2305 25.2109H63.8613L63.7383 25.0938H63.3691L63.2461 24.9766H63L62.877 24.8594H62.5078L62.3848 24.7422H61.8926L61.7695 24.625H61.2773L61.1543 24.5078H60.6621L60.5391 24.3906H59.8008L59.6777 24.2734H58.8164L58.6934 24.1562H57.4629L57.3398 24.0391H53.4023Z" fill="#ECE8E5"/>
<path d="M0 -11V108.883H125.877V-11H0ZM115.295 57.5547L115.418 57.4375H118.248L118.371 57.5547V71.2656L118.248 71.3828H115.418L115.295 71.2656V57.5547ZM100.406 57.5547L100.529 57.4375H108.281L108.404 57.5547H109.143L109.266 57.6719H109.635L109.758 57.7891H109.881L110.004 57.9062H110.25L110.373 58.0234H110.496L110.742 58.2578H110.865L111.727 59.0781V59.1953L111.973 59.4297V59.5469L112.096 59.6641V59.8984L112.219 60.0156V60.3672L112.342 60.4844V62.0078L112.219 62.125V62.3594L112.096 62.4766V62.5938L111.973 62.7109V62.8281L111.85 62.9453V63.0625L110.865 64H110.742L110.619 64.1172H110.742L110.865 64.2344H110.988L111.234 64.4688H111.357L112.219 65.2891V65.4062L112.465 65.6406V65.7578L112.588 65.875V66.1094L112.711 66.2266V66.4609L112.834 66.5781V68.1016L112.711 68.2187V68.4531L112.588 68.5703V68.8047L112.465 68.9219V69.0391L112.342 69.1562V69.2734L112.219 69.3906V69.5078L111.111 70.5625H110.988L110.742 70.7969H110.619L110.496 70.9141H110.25L110.127 71.0312H109.881L109.758 71.1484H109.389L109.266 71.2656H108.035L107.912 71.3828H100.529L100.406 71.2656V57.5547ZM65.2148 57.5547L65.3379 57.4375H68.7832L69.0293 57.6719V57.7891L69.1523 57.9062V58.0234L69.2754 58.1406V58.2578L69.3984 58.375V58.4922L69.5215 58.6094V58.7266L69.6445 58.8438V58.9609L69.7676 59.0781V59.1953L69.8906 59.3125V59.4297L70.0137 59.5469V59.6641L70.1367 59.7812V59.8984L70.2598 60.0156V60.1328L70.3828 60.25V60.3672L70.5059 60.4844V60.6016L70.6289 60.7187V60.8359L70.752 60.9531V61.0703L70.875 61.1875V61.3047L70.998 61.4219V61.5391L71.1211 61.6562V61.7734L71.3672 62.0078V62.125L71.4902 62.2422V62.3594L71.6133 62.4766V62.5938L71.7363 62.7109V62.8281L71.8594 62.9453V63.0625L71.9824 63.1797V63.2969L72.1055 63.4141V63.5312L72.2285 63.6484V63.7656L72.3516 63.8828V64L72.4746 64.1172V64.2344L72.5977 64.3516V64.4688L72.7207 64.5859V64.7031L72.8438 64.8203V64.9375L72.9668 65.0547V64.8203L73.0898 64.7031V64.5859L73.2129 64.4688V64.3516L73.3359 64.2344V64.1172L73.459 64V63.8828L73.582 63.7656V63.6484L73.7051 63.5312V63.4141L73.8281 63.2969V63.1797L73.9512 63.0625V62.9453L74.0742 62.8281V62.7109L74.1973 62.5938V62.4766L74.3203 62.3594V62.2422L74.4434 62.125V62.0078L74.5664 61.8906V61.7734L74.8125 61.5391V61.3047L75.0586 61.0703V60.9531L75.1816 60.8359V60.7187L75.3047 60.6016V60.4844L75.4277 60.3672V60.25L75.5508 60.1328V60.0156L75.6738 59.8984V59.7812L75.7969 59.6641V59.5469L75.9199 59.4297V59.3125L76.043 59.1953V59.0781L76.166 58.9609V58.8438L76.2891 58.7266V58.6094L76.4121 58.4922V58.375L76.5352 58.2578V58.1406L76.6582 58.0234V57.9062L76.7812 57.7891V57.6719L77.0273 57.4375H80.4727L80.5957 57.5547V71.2656L80.4727 71.3828H80.3496L80.2266 71.2656L80.1035 71.3828L79.9805 71.2656L79.8574 71.3828H77.6426L77.5195 71.2656V62.2422V62.3594L77.3965 62.4766V62.5938L77.2734 62.7109V62.8281L77.1504 62.9453V63.0625L77.0273 63.1797V63.2969L76.9043 63.4141V63.5312L76.7812 63.6484V63.7656L76.6582 63.8828V64L76.5352 64.1172V64.2344L76.4121 64.3516V64.4688L76.166 64.7031V64.9375L76.043 65.0547V65.1719L75.7969 65.4062V65.6406L75.6738 65.7578V65.875L75.4277 66.1094V66.2266L75.3047 66.3437V66.4609L75.1816 66.5781V66.6953L75.0586 66.8125V66.9297L74.9355 67.0469V67.1641L74.8125 67.2812V67.3984L74.6895 67.5156V67.6328L74.5664 67.75V67.8672L74.4434 67.9844V68.1016L74.3203 68.2187V68.3359L74.1973 68.4531V68.5703L74.0742 68.6875V68.8047L73.9512 68.9219H71.7363L71.6133 68.8047V68.6875L71.4902 68.5703V68.4531L71.3672 68.3359V68.2187L71.2441 68.1016V67.9844L71.1211 67.8672V67.75L70.998 67.6328V67.5156L70.875 67.3984V67.2812L70.752 67.1641V67.0469L70.6289 66.9297V66.8125L70.5059 66.6953V66.5781L70.3828 66.4609V66.3437L70.2598 66.2266V66.1094L70.1367 65.9922V65.875L70.0137 65.7578V65.6406L69.8906 65.5234V65.4062L69.7676 65.2891V65.1719L69.6445 65.0547V64.9375L69.5215 64.8203V64.5859L69.3984 64.4688V64.3516L69.2754 64.2344V64.1172L69.1523 64V63.8828L69.0293 63.7656V63.6484L68.9062 63.5312V63.4141L68.7832 63.2969V63.1797L68.6602 63.0625V62.9453L68.5371 62.8281V62.7109L68.4141 62.5938V62.4766L68.291 62.3594V62.2422V71.2656L68.168 71.3828H65.3379L65.2148 71.2656V57.5547ZM54.6328 57.5547L54.7559 57.4375H57.832L58.0781 57.6719V57.7891L58.2012 57.9062V58.1406L58.3242 58.2578V58.4922L58.4473 58.6094V58.7266L58.5703 58.8438V59.0781L58.6934 59.1953V59.3125L58.8164 59.4297V59.6641L58.9395 59.7812V59.8984L59.0625 60.0156V60.25L59.1855 60.3672V60.4844L59.3086 60.6016V60.8359L59.4316 60.9531V61.0703L59.5547 61.1875V61.4219L59.6777 61.5391V61.7734L59.8008 61.8906V62.0078L59.9238 62.125V62.3594L60.0469 62.4766V62.5938L60.1699 62.7109V62.9453L60.293 63.0625V63.1797L60.416 63.2969V63.5312L60.5391 63.6484V63.8828L60.6621 64V64.1172L60.7852 64.2344V64.4688L60.9082 64.5859V64.7031L61.0312 64.8203V65.0547L61.1543 65.1719V65.2891L61.2773 65.4062V65.6406L61.4004 65.7578V65.9922L61.5234 66.1094V66.2266L61.6465 66.3437V66.5781L61.7695 66.6953V66.8125L61.8926 66.9297V67.1641L62.0156 67.2812V67.3984L62.1387 67.5156V67.75L62.2617 67.8672V68.1016L62.3848 68.2187V68.3359L62.5078 68.4531V68.6875L62.6309 68.8047V68.9219L62.7539 69.0391V69.2734L62.877 69.3906V69.5078L63 69.625V69.8594L63.123 69.9766V70.0938L63.2461 70.2109V70.4453L63.3691 70.5625V70.7969L63.4922 70.9141V71.0312L63.6152 71.1484V71.2656L63.4922 71.3828H62.6309L62.5078 71.2656H62.0156L61.8926 71.3828L61.7695 71.2656H61.4004L61.2773 71.3828H61.0312L60.9082 71.2656H60.5391L60.416 71.3828H60.293L60.1699 71.2656V71.1484L60.0469 71.0312V70.7969L59.9238 70.6797V70.4453L59.8008 70.3281V70.0938L59.6777 69.9766V69.8594L59.5547 69.7422V69.5078L59.4316 69.3906V69.1562L59.3086 69.0391V68.8047L59.1855 68.6875V68.4531H53.4023V68.6875L53.2793 68.8047V69.0391L53.1562 69.1562V69.3906L53.0332 69.5078V69.7422L52.9102 69.8594V70.0938L52.7871 70.2109V70.3281L52.6641 70.4453V70.6797L52.541 70.7969V71.0312L52.418 71.1484V71.2656L52.2949 71.3828H51.8027L51.6797 71.2656L51.5566 71.3828H51.3105L51.1875 71.2656L51.0645 71.3828H50.8184L50.6953 71.2656L50.5723 71.3828L50.4492 71.2656L50.3262 71.3828L50.2031 71.2656L50.0801 71.3828H49.0957L48.9727 71.2656V71.1484L49.0957 71.0312V70.9141L49.2188 70.7969V70.5625L49.3418 70.4453V70.3281L49.4648 70.2109V69.9766L49.5879 69.8594V69.7422L49.7109 69.625V69.3906L49.834 69.2734V69.1562L49.957 69.0391V68.8047L50.0801 68.6875V68.5703L50.2031 68.4531V68.2187L50.3262 68.1016V67.8672L50.4492 67.75V67.6328L50.5723 67.5156V67.2812L50.6953 67.1641V67.0469L50.8184 66.9297V66.6953L50.9414 66.5781V66.4609L51.0645 66.3437V66.1094L51.1875 65.9922V65.875L51.3105 65.7578V65.5234L51.4336 65.4062V65.2891L51.5566 65.1719V64.9375L51.6797 64.8203V64.7031L51.8027 64.5859V64.3516L51.9258 64.2344V64.1172L52.0488 64V63.7656L52.1719 63.6484V63.4141L52.2949 63.2969V63.1797L52.418 63.0625V62.8281L52.541 62.7109V62.5938L52.6641 62.4766V62.2422L52.7871 62.125V62.0078L52.9102 61.8906V61.6562L53.0332 61.5391V61.4219L53.1562 61.3047V61.0703L53.2793 60.9531V60.8359L53.4023 60.7187V60.4844L53.5254 60.3672V60.1328L53.6484 60.0156V59.8984L53.7715 59.7812V59.5469L53.8945 59.4297V59.3125L54.0176 59.1953V58.9609L54.1406 58.8438V58.7266L54.2637 58.6094V58.375L54.3867 58.2578V58.1406L54.5098 58.0234V57.7891L54.6328 57.6719V57.5547ZM7.875 57.5547L7.99805 57.4375H10.9512L11.0742 57.5547V68.5703H17.9648L18.0879 68.6875V71.2656L17.9648 71.3828H8.12109L7.875 71.1484V57.5547ZM89.8242 57.3203L89.9473 57.2031H91.1777L91.3008 57.3203H92.0391L92.1621 57.4375H92.5312L92.6543 57.5547H92.9004L93.0234 57.6719H93.2695L93.3926 57.7891H93.6387L93.7617 57.9062H93.8848L94.0078 58.0234H94.1309L94.2539 58.1406H94.377L94.623 58.375H94.7461L94.8691 58.4922H94.9922L95.3613 58.8438H95.4844L96.7148 60.0156V60.1328L97.084 60.4844V60.6016L97.207 60.7187V60.8359L97.4531 61.0703V61.1875L97.5762 61.3047V61.5391L97.6992 61.6562V61.7734L97.8223 61.8906V62.125L97.9453 62.2422V62.4766L98.0684 62.5938V63.0625L98.1914 63.1797V65.5234L98.0684 65.6406V66.1094L97.9453 66.2266V66.5781L97.8223 66.6953V66.9297L97.6992 67.0469V67.1641L97.5762 67.2812V67.3984L97.4531 67.5156V67.6328L97.3301 67.75V67.8672L97.207 67.9844V68.1016L96.9609 68.3359V68.4531L96.5918 68.8047V68.9219L95.6074 69.8594H95.4844L95.1152 70.2109H94.9922L94.7461 70.4453H94.623L94.5 70.5625H94.377L94.2539 70.6797H94.1309L94.0078 70.7969H93.8848L93.7617 70.9141H93.6387L93.5156 71.0312H93.2695L93.1465 71.1484H92.9004L92.7773 71.2656H92.4082L92.2852 71.3828H91.6699L91.5469 71.5H89.5781L89.4551 71.3828H88.8398L88.7168 71.2656H88.3477L88.2246 71.1484H87.9785L87.8555 71.0312H87.6094L87.4863 70.9141H87.3633L87.2402 70.7969H87.1172L86.9941 70.6797H86.8711L86.748 70.5625H86.625L86.3789 70.3281H86.2559L86.0098 70.0938H85.8867L84.2871 68.5703V68.4531L84.041 68.2187V68.1016L83.918 67.9844V67.8672L83.6719 67.6328V67.5156L83.5488 67.3984V67.1641L83.4258 67.0469V66.9297L83.3027 66.8125V66.5781L83.1797 66.4609V66.1094L83.0566 65.9922V65.5234L82.9336 65.4062V63.2969L83.0566 63.1797V62.7109L83.1797 62.5938V62.2422L83.3027 62.125V62.0078L83.4258 61.8906V61.6562L83.5488 61.5391V61.4219L83.6719 61.3047V61.1875L83.7949 61.0703V60.9531L83.918 60.8359V60.7187L84.1641 60.4844V60.3672L84.4102 60.1328V60.0156L85.7637 58.7266H85.8867L86.2559 58.375H86.3789L86.502 58.2578H86.625L86.8711 58.0234H86.9941L87.1172 57.9062H87.3633L87.4863 57.7891H87.6094L87.7324 57.6719H87.9785L88.1016 57.5547H88.3477L88.4707 57.4375H88.9629L89.0859 57.3203H89.8242ZM41.4668 57.3203L41.5898 57.2031H42.9434L43.0664 57.3203H43.6816L43.8047 57.4375H44.1738L44.2969 57.5547H44.543L44.666 57.6719H44.9121L45.0352 57.7891H45.2812L45.4043 57.9062H45.5273L45.6504 58.0234H45.7734L45.8965 58.1406H46.0195L46.2656 58.375H46.3887L46.7578 58.7266H46.8809L48.1113 59.8984V60.0156L48.4805 60.3672V60.4844L48.6035 60.6016V60.7187L48.4805 60.8359H48.3574L48.2344 60.9531H48.1113L47.9883 61.0703H47.8652L47.7422 61.1875H47.6191L47.4961 61.3047H47.373L47.127 61.5391H47.0039L46.8809 61.6562H46.7578L46.6348 61.7734H46.5117L46.3887 61.8906H46.2656L46.0195 62.125H45.8965L45.7734 62.0078V61.8906L45.5273 61.6562V61.5391L44.7891 60.8359H44.666L44.4199 60.6016H44.2969L44.0508 60.3672H43.8047L43.6816 60.25H43.5586L43.4355 60.1328H43.0664L42.9434 60.0156H41.7129L41.5898 60.1328H41.2207L41.0977 60.25H40.8516L40.7285 60.3672H40.6055L40.4824 60.4844H40.3594L40.2363 60.6016H40.1133L39.8672 60.8359H39.7441L39.0059 61.5391V61.6562L38.7598 61.8906V62.0078L38.6367 62.125V62.2422L38.5137 62.3594V62.4766L38.3906 62.5938V62.7109L38.2676 62.8281V63.1797L38.1445 63.2969V63.8828L38.0215 64V64.5859L38.1445 64.7031V65.4062L38.2676 65.5234V65.875L38.3906 65.9922V66.1094L38.5137 66.2266V66.3437L38.6367 66.4609V66.5781L38.7598 66.6953V66.8125L39.0059 67.0469V67.1641L39.7441 67.8672H39.8672L40.1133 68.1016H40.2363L40.3594 68.2187H40.4824L40.6055 68.3359H40.8516L40.9746 68.4531H41.2207L41.3438 68.5703H41.8359L41.959 68.6875H42.8203L42.9434 68.5703H43.3125L43.4355 68.4531H43.6816L43.8047 68.3359H44.0508L44.1738 68.2187H44.2969L44.543 67.9844H44.666L45.0352 67.6328H45.1582L45.5273 67.2812V67.1641L46.0195 66.6953L46.1426 66.8125H46.2656L46.3887 66.9297H46.5117L46.7578 67.1641H46.8809L47.0039 67.2812H47.127L47.25 67.3984H47.373L47.6191 67.6328H47.7422L47.8652 67.75H47.9883L48.1113 67.8672H48.2344L48.3574 67.9844H48.4805L48.6035 68.1016V68.2187L48.4805 68.3359V68.4531L48.1113 68.8047V68.9219L47.0039 69.9766H46.8809L46.5117 70.3281H46.3887L46.2656 70.4453H46.1426L45.8965 70.6797H45.7734L45.6504 70.7969H45.5273L45.4043 70.9141H45.1582L45.0352 71.0312H44.9121L44.7891 71.1484H44.543L44.4199 71.2656H44.0508L43.9277 71.3828H43.4355L43.3125 71.5H41.3438L41.2207 71.3828H40.6055L40.4824 71.2656H40.2363L40.1133 71.1484H39.8672L39.7441 71.0312H39.498L39.375 70.9141H39.252L39.1289 70.7969H39.0059L38.8828 70.6797H38.7598L38.6367 70.5625H38.5137L38.3906 70.4453H38.2676L38.0215 70.2109H37.8984L37.5293 69.8594H37.4062L36.4219 68.9219V68.8047L36.0527 68.4531V68.3359L35.8066 68.1016V67.9844L35.6836 67.8672V67.75L35.5605 67.6328V67.5156L35.4375 67.3984V67.2812L35.3145 67.1641V67.0469L35.1914 66.9297V66.6953L35.0684 66.5781V66.2266L34.9453 66.1094V65.6406L34.8223 65.5234V63.4141L34.9453 63.2969V62.8281L35.0684 62.7109V62.3594L35.1914 62.2422V62.0078L35.3145 61.8906V61.7734L35.4375 61.6562V61.4219L35.5605 61.3047V61.1875L35.6836 61.0703V60.9531L35.9297 60.7187V60.6016L36.1758 60.3672V60.25L36.5449 59.8984V59.7812L37.4062 58.9609H37.5293L37.8984 58.6094H38.0215L38.3906 58.2578H38.5137L38.6367 58.1406H38.7598L38.8828 58.0234H39.0059L39.1289 57.9062H39.252L39.375 57.7891H39.498L39.6211 57.6719H39.8672L39.9902 57.5547H40.2363L40.3594 57.4375H40.7285L40.8516 57.3203H41.4668ZM25.3477 57.3203L25.4707 57.2031H26.5781L26.7012 57.3203H27.4395L27.5625 57.4375H28.0547L28.1777 57.5547H28.4238L28.5469 57.6719H28.793L28.916 57.7891H29.0391L29.1621 57.9062H29.2852L29.4082 58.0234H29.5312L29.6543 58.1406H29.7773L29.9004 58.2578H30.0234L30.2695 58.4922H30.3926L30.6387 58.7266H30.7617L32.2383 60.1328V60.25L32.4844 60.4844V60.6016L32.7305 60.8359V60.9531L32.8535 61.0703V61.1875L32.9766 61.3047V61.4219L33.0996 61.5391V61.6562L33.2227 61.7734V62.0078L33.3457 62.125V62.3594L33.4688 62.4766V62.9453L33.5918 63.0625V63.8828L33.7148 64V64.9375L33.5918 65.0547V65.7578L33.4688 65.875V66.3437L33.3457 66.4609V66.6953L33.2227 66.8125V67.0469L33.0996 67.1641V67.2812L32.9766 67.3984V67.5156L32.8535 67.6328V67.75L32.7305 67.8672V67.9844L32.6074 68.1016V68.2187L32.3613 68.4531V68.5703L31.8691 69.0391V69.1562L31.2539 69.7422H31.1309L30.6387 70.2109H30.5156L30.2695 70.4453H30.1465L30.0234 70.5625H29.9004L29.7773 70.6797H29.6543L29.5312 70.7969H29.4082L29.2852 70.9141H29.1621L29.0391 71.0312H28.793L28.6699 71.1484H28.4238L28.3008 71.2656H27.9316L27.8086 71.3828H27.1934L27.0703 71.5H24.9785L24.8555 71.3828H24.2402L24.1172 71.2656H23.748L23.625 71.1484H23.3789L23.2559 71.0312H23.1328L23.0098 70.9141H22.7637L22.6406 70.7969H22.5176L22.3945 70.6797H22.2715L22.0254 70.4453H21.9023L21.7793 70.3281H21.6562L21.2871 69.9766H21.1641L19.9336 68.8047V68.6875L19.5645 68.3359V68.2187L19.3184 67.9844V67.8672L19.1953 67.75V67.6328L19.0723 67.5156V67.3984L18.9492 67.2812V67.1641L18.8262 67.0469V66.8125L18.7031 66.6953V66.4609L18.5801 66.3437V65.9922L18.457 65.875V65.2891L18.334 65.1719V63.5312L18.457 63.4141V62.8281L18.5801 62.7109V62.3594L18.7031 62.2422V62.0078L18.8262 61.8906V61.6562L18.9492 61.5391V61.4219L19.0723 61.3047V61.1875L19.1953 61.0703V60.9531L19.4414 60.7187V60.6016L19.6875 60.3672V60.25L20.0566 59.8984V59.7812L20.7949 59.0781H20.918L21.4102 58.6094H21.5332L21.7793 58.375H21.9023L22.1484 58.1406H22.2715L22.3945 58.0234H22.5176L22.6406 57.9062H22.8867L23.0098 57.7891H23.1328L23.2559 57.6719H23.502L23.625 57.5547H23.8711L23.9941 57.4375H24.4863L24.6094 57.3203H25.3477ZM53.8945 21.1094L54.0176 20.9922H56.6016L56.7246 21.1094H58.3242L58.4473 21.2266H59.5547L59.6777 21.3437H60.5391L60.6621 21.4609H61.1543L61.2773 21.5781H61.7695L61.8926 21.6953H62.3848L62.5078 21.8125H63L63.123 21.9297H63.4922L63.6152 22.0469H63.9844L64.1074 22.1641H64.4766L64.5996 22.2812H64.8457L64.9688 22.3984H65.2148L65.3379 22.5156H65.584L65.707 22.6328H65.9531L66.0762 22.75H66.3223L66.4453 22.8672H66.6914L66.8145 22.9844H67.0605L67.1836 23.1016H67.3066L67.4297 23.2187H67.6758L67.7988 23.3359H67.9219L68.0449 23.4531H68.291L68.4141 23.5703H68.5371L68.6602 23.6875H68.7832L68.9062 23.8047H69.0293L69.1523 23.9219H69.2754L69.3984 24.0391H69.5215L69.6445 24.1562H69.7676L69.8906 24.2734H70.0137L70.1367 24.3906H70.2598L70.3828 24.5078H70.5059L70.6289 24.625H70.752L70.875 24.7422H70.998L71.2441 24.9766H71.3672L71.6133 25.2109H71.7363L71.9824 25.4453H72.1055L72.2285 25.5625H72.3516L72.5977 25.7969H72.7207L73.0898 26.1484H73.2129L73.459 26.3828H73.582L73.8281 26.6172H73.9512L74.1973 26.8516H74.3203L74.5664 27.0859H74.6895L74.9355 27.3203H75.0586L75.4277 27.6719H75.5508L75.7969 27.9062H75.9199L76.2891 28.2578H76.4121L76.7812 28.6094H76.9043L77.1504 28.8438H77.2734L77.5195 29.0781H77.6426L77.7656 29.1953H77.8887L78.1348 29.4297H78.2578L78.3809 29.5469H78.5039L78.627 29.6641H78.75L78.873 29.7812H78.9961L79.1191 29.8984H79.2422L79.3652 30.0156H79.6113L79.7344 30.1328H79.8574L79.9805 30.25H80.2266L80.3496 30.3672H80.5957L80.7188 30.4844H81.0879L81.2109 30.6016H81.5801L81.7031 30.7187H82.1953L82.3184 30.8359H82.9336L83.0566 30.9531H83.7949L83.918 31.0703H84.6562L84.7793 31.1875H85.5176L85.6406 31.3047H86.2559L86.3789 31.4219H86.9941L87.1172 31.5391H87.6094L87.7324 31.6562H88.2246L88.3477 31.7734H88.7168L88.8398 31.8906H89.209L89.332 32.0078H89.7012L89.8242 32.125H90.0703L90.1934 32.2422H90.4395L90.5625 32.3594H90.9316L91.0547 32.4766H91.3008L91.4238 32.5937H91.5469L91.6699 32.7109H91.916L92.0391 32.8281H92.1621L92.2852 32.9453H92.5312L92.6543 33.0625H92.7773L92.9004 33.1797H93.0234L93.1465 33.2969H93.3926L93.5156 33.4141H93.6387L93.7617 33.5312H93.8848L94.0078 33.6484H94.1309L94.377 33.8828H94.5L94.623 34H94.7461L94.8691 34.1172H94.9922L95.2383 34.3516H95.3613L95.6074 34.5859H95.7305L96.0996 34.9375H96.2227L96.5918 35.2891H96.7148L98.0684 36.5781V36.6953L98.4375 37.0469V37.1641L98.6836 37.3984V37.5156L98.9297 37.75V37.8672L99.0527 37.9844V38.1016L99.1758 38.2188V38.3359L99.2988 38.4531V38.5703L99.4219 38.6875V38.9219L99.5449 39.0391V39.2734L99.668 39.3906V39.7422L99.791 39.8594V40.2109L99.9141 40.3281V40.9141L100.037 41.0312V41.9687L100.16 42.0859V43.4922L100.037 43.6094V43.8437L99.9141 43.9609V44.0781L99.791 44.1953V44.3125L99.2988 44.7812H99.1758L98.9297 45.0156H98.6836L98.5605 45.1328H97.5762L97.4531 45.25H57.0938L56.9707 45.1328H53.8945L53.7715 45.25H52.1719L52.0488 45.3672H51.4336L51.3105 45.4844H50.9414L50.8184 45.6016H50.5723L50.4492 45.7187H50.2031L50.0801 45.8359H49.834L49.7109 45.9531H49.5879L49.4648 46.0703H49.2188L49.0957 46.1875H48.9727L48.8496 46.3047H48.7266L48.6035 46.4219H48.4805L48.3574 46.5391H48.2344L47.9883 46.7734H47.8652L47.6191 47.0078H47.4961L47.373 47.125H47.25L46.8809 47.4766H46.7578L46.2656 47.9453H46.1426L45.0352 49H44.9121V49.1172L43.3125 50.6406V50.7578L42.9434 51.1094V51.2266L42.5742 51.5781V51.6953L42.4512 51.8125H36.1758L35.9297 51.5781V51.4609L35.6836 51.2266V51.1094L35.4375 50.875V50.7578L35.3145 50.6406V50.5234L35.1914 50.4062V50.2891L35.0684 50.1719V50.0547L34.9453 49.9375V49.8203L34.8223 49.7031V49.4687L34.6992 49.3516V49.2344L34.5762 49.1172V48.7656L34.4531 48.6484V48.4141L34.3301 48.2969V47.8281L34.207 47.7109V47.0078L34.084 46.8906V45.3672L34.207 45.25H32.7305L32.6074 45.1328H31.377L31.2539 45.0156H30.7617L30.6387 44.8984H30.1465L30.0234 44.7812H29.7773L29.6543 44.6641H29.4082L29.2852 44.5469H29.0391L28.916 44.4297H28.793L28.6699 44.3125H28.5469L28.4238 44.1953H28.3008L28.1777 44.0781H28.0547L27.8086 43.8437H27.6855L27.4395 43.6094H27.3164L26.0859 42.4375V42.3203L25.8398 42.0859V41.9687L25.5938 41.7344V41.5L25.4707 41.3828V41.2656L25.3477 41.1484V40.9141L25.2246 40.7969V40.4453L25.1016 40.3281V39.8594L24.9785 39.7422V38.6875L24.8555 38.5703V34.9375L24.9785 34.8203V34.1172L25.1016 34V33.5312L25.2246 33.4141V33.1797L25.3477 33.0625V32.8281L25.5938 32.5937V32.4766L26.209 31.8906H26.332L26.5781 31.6562H26.8242L26.9473 31.5391H27.3164L27.4395 31.4219H27.9316L28.0547 31.3047H28.4238L28.5469 31.1875H28.793L28.916 31.0703H29.1621L29.2852 30.9531H29.5312L29.6543 30.8359H29.7773L29.9004 30.7187H30.1465L30.2695 30.6016H30.3926L30.5156 30.4844H30.6387L30.7617 30.3672H30.8848L31.0078 30.25H31.1309L31.2539 30.1328H31.377L31.5 30.0156H31.623L31.7461 29.8984H31.8691L31.9922 29.7812H32.1152L32.2383 29.6641H32.3613L32.4844 29.5469H32.6074L32.8535 29.3125H32.9766L33.0996 29.1953H33.2227L33.4688 28.9609H33.5918L33.7148 28.8438H33.8379L34.084 28.6094H34.207L34.4531 28.375H34.5762L34.8223 28.1406H34.9453L35.1914 27.9062H35.3145L35.5605 27.6719H35.6836L35.9297 27.4375H36.0527L36.2988 27.2031H36.4219L36.668 26.9687H36.791L37.0371 26.7344H37.1602L37.4062 26.5H37.5293L37.7754 26.2656H37.8984L38.1445 26.0312H38.2676L38.5137 25.7969H38.6367L38.8828 25.5625H39.0059L39.252 25.3281H39.375L39.498 25.2109H39.6211L39.8672 24.9766H39.9902L40.2363 24.7422H40.3594L40.4824 24.625H40.6055L40.7285 24.5078H40.8516L40.9746 24.3906H41.0977L41.2207 24.2734H41.3438L41.4668 24.1562H41.5898L41.7129 24.0391H41.8359L41.959 23.9219H42.082L42.2051 23.8047H42.3281L42.4512 23.6875H42.5742L42.6973 23.5703H42.8203L42.9434 23.4531H43.1895L43.3125 23.3359H43.4355L43.5586 23.2187H43.6816L43.8047 23.1016H44.0508L44.1738 22.9844H44.2969L44.4199 22.8672H44.666L44.7891 22.75H45.0352L45.1582 22.6328H45.4043L45.5273 22.5156H45.7734L45.8965 22.3984H46.1426L46.2656 22.2812H46.6348L46.7578 22.1641H47.0039L47.127 22.0469H47.4961L47.6191 21.9297H47.8652L47.9883 21.8125H48.3574L48.4805 21.6953H48.9727L49.0957 21.5781H49.5879L49.7109 21.4609H50.3262L50.4492 21.3437H51.1875L51.3105 21.2266H52.2949L52.418 21.1094H53.8945Z" fill="#ECE8E5"/>
</g>
<defs>
<clipPath id="clip0_4_29">
<rect width="126" height="95" fill="white"/>
</clipPath>
</defs>
</svg>
